:SAMPLES-PER-SECOND 30
:FULLY-SPECIFIED
:DEGREES
816
root  69.7329 39.7507 -24.7128 10.5876 -36.8461 -0.421343
RightUpLeg  -34.5277 -35.1272 1.86862
RightLeg  22.2179 2.25769 0.703598
RightFoot  -3.25222 -0.666659 9.10551
RightToes  0.000482159 0.542163 -0.142577
Spine  43.6408 0.677975 -2.06557
Spine1  -2.02754 0.267384 -0.200135
HEad  -39.0164 -22.2786 25.6469
LeftShoulder1  11.8228 -18.698 -46.4347
LeftArm  -24.6596 16.0783 -22.4081
LeftForeArm  40.5374 -74.648 -40.5671
LeftHand  -0.25398 0.0180481 5.50724
RightShoulder  6.42781 10.9035 38.5469
RightArm  -16.618 -4.46635 25.2755
RightForeArm  16.5518 74.0355 44.5915
RightHand  -0.727701 -11.5908 11.5256
LeftUpLeg  -15.4981 18.3707 8.86747
LeftLeg  11.2934 26.6818 -3.86126
LeftFoot  -0.0690317 0.489527 -4.95733
LeftToes  1.06246e-005 4.65854e-005 -8.18503e-006
817
root  68.8543 39.6957 -24.6365 9.58501 -39.0175 0.291665
RightUpLeg  -32.6527 -36.3983 0.800488
RightLeg  16.5594 -1.98032 -0.264524
RightFoot  -3.4046 -0.532283 7.31806
RightToes  0.000482159 0.542163 -0.142577
Spine  41.7488 1.1584 -3.12896
Spine1  -2.14386 0.255151 0.558017
HEad  -38.2251 -22.5108 25.0674
LeftShoulder1  11.7916 -18.6425 -46.4285
LeftArm  -22.9649 18.9495 -22.3237
LeftForeArm  50.835 -76.9381 -49.928
LeftHand  -0.25398 0.0180481 5.50724
RightShoulder  6.24349 10.6487 38.0672
RightArm  -17.9628 -10.8033 25.5571
RightForeArm  30.7124 76.85 59.1663
RightHand  -0.836299 -12.245 12.1267
LeftUpLeg  -12.3784 16.7039 10.5175
LeftLeg  9.88009 30.1422 -4.57229
LeftFoot  -0.152148 0.690334 -7.04123
LeftToes  1.06246e-005 4.65854e-005 -8.18503e-006
818
root  67.87 39.6011 -24.6042 8.37841 -40.988 1.34867
RightUpLeg  -28.5434 -31.6471 -4.24819
RightLeg  12.0297 -12.5197 0.520717
RightFoot  -3.6222 -0.383847 5.32459
RightToes  0.000482159 0.542163 -0.142577
Spine  39.8785 1.37604 -4.30497
Spine1  -2.05713 -0.0430168 1.31082
HEad  -37.246 -22.3719 24.0633
LeftShoulder1  11.6211 -18.5329 -45.9715
LeftArm  -21.3391 20.9887 -22.5954
LeftForeArm  61.781 -78.4917 -60.3286
LeftHand  -0.25398 0.0180481 5.50724
RightShoulder  5.9589 10.2269 37.3759
RightArm  -18.8867 -15.7241 26.3569
RightForeArm  45.8128 78.2415 74.655
RightHand  -0.880405 -12.7274 11.9501
LeftUpLeg  -9.44982 15.0257 11.5463
LeftLeg  8.43903 33.296 -4.82284
LeftFoot  -0.242211 0.839748 -8.61653
LeftToes  1.06246e-005 4.65854e-005 -8.18503e-006
819
root  66.7709 39.5164 -24.5822 7.28944 -42.3742 1.92183
RightUpLeg  -24.739 -25.4173 -8.30858
RightLeg  9.55418 -21.77 1.65407
RightFoot  -3.05969 -0.308128 3.97025
RightToes  0.000482159 0.542163 -0.142577
Spine  38.3626 1.02133 -4.80972
Spine1  -1.78717 -0.826001 2.48899
HEad  -36.3253 -21.7008 22.8273
LeftShoulder1  11.451 -18.2432 -45.9029
LeftArm  -20.2651 22.4236 -22.6769
LeftForeArm  71.2104 -79.3262 -69.8579
LeftHand  -0.25398 0.0180481 5.50724
RightShoulder  5.6875 9.78353 36.8024
RightArm  -19.1583 -19.1154 26.8982
RightForeArm  59.4278 78.6241 88.9086
RightHand  -0.955274 -13.6082 11.5981
LeftUpLeg  -6.26641 14.3256 12.645
LeftLeg  6.41726 34.5758 -5.05014
LeftFoot  0.571028 1.05705 -10.1147
LeftToes  1.06246e-005 4.65854e-005 -8.18503e-006
820
root  65.5498 39.4397 -24.5281 6.98187 -43.6731 1.26374
RightUpLeg  -23.4375 -24.5484 -7.33043
RightLeg  10.2125 -21.7382 1.38348
RightFoot  -1.24474 -0.326173 3.58931
RightToes  0.000482159 0.542163 -0.142577
Spine  37.0243 0.0901415 -4.0776
Spine1  -1.49601 -1.81794 3.58203
HEad  -35.1575 -20.3366 21.2539
LeftShoulder1  11.3353 -17.8744 -46.2366
LeftArm  -19.7742 24.0137 -22.2122
LeftForeArm  79.7348 -79.7512 -79.0756
LeftHand  -0.25398 0.0180481 5.50724
RightShoulder  5.57463 9.62936 36.455
RightArm  -18.843 -21.499 26.8763
RightForeArm  70.0876 78.399 100.536
RightHand  -1.06697 -14.7541 11.4164
LeftUpLeg  -2.74902 14.4441 14.7352
LeftLeg  4.36656 35.0989 -5.35352
LeftFoot  1.6105 1.41602 -12.5575
LeftToes  1.06246e-005 4.65854e-005 -8.18503e-006
